<?xml version="1.0" encoding="iso-8859-1"?>
<!-- Generator: Adobe Illustrator 19.0.0, SVG Export Plug-In . SVG Version: 6.00 Build 0)  -->
<svg xmlns="http://www.w3.org/2000/svg" xmlns:xlink="http://www.w3.org/1999/xlink" version="1.1" id="Layer_1" x="0px" y="0px" viewBox="0 0 394.02 394.02" style="enable-background:new 0 0 394.02 394.02;" xml:space="preserve" width="512" height="512">
<g>
	<path style="fill:#D64394;" d="M347.593,148.083c4.79,14.73-6.29,32.61-6.29,48.93s11.08,34.2,6.29,48.92   c-4.95,15.27-24.59,23.19-33.83,35.89c-9.34,12.83-10.87,33.92-23.7,43.26c-12.71,9.24-33.19,4.24-48.45,9.2   c-14.73,4.78-28.28,21.02-44.6,21.02s-29.88-16.24-44.61-21.02c-15.26-4.96-35.74,0.04-48.45-9.2   c-12.83-9.34-14.36-30.43-23.69-43.26c-9.25-12.7-28.88-20.62-33.84-35.89c-4.78-14.72,6.29-32.6,6.29-48.92   s-11.07-34.2-6.29-48.93c4.96-15.26,24.59-23.18,33.84-35.89c9.33-12.83,10.86-33.92,23.69-43.25c12.71-9.25,33.19-4.25,48.45-9.2   c14.73-4.79,28.29-21.03,44.61-21.03s29.87,16.24,44.6,21.03c15.26,4.95,35.74-0.05,48.45,9.2c12.83,9.33,14.36,30.42,23.7,43.25   C323.003,124.903,342.643,132.823,347.593,148.083z M261.413,197.013c0-35.57-28.83-64.41-64.4-64.41s-64.41,28.84-64.41,64.41   s28.84,64.4,64.41,64.4S261.413,232.583,261.413,197.013z"/>
	<path style="fill:#BC3987;" d="M141.453,325.083c-12.83-9.34-14.36-30.43-23.69-43.26c-9.25-12.7-28.88-20.62-33.84-35.89   c-4.78-14.72,6.29-32.6,6.29-48.92c0-16.32-11.07-34.2-6.29-48.93c4.96-15.26,24.59-23.18,33.84-35.89   c9.33-12.83,10.86-33.92,23.69-43.25c12.71-9.25,33.19-4.25,48.45-9.2c8.76-2.85,17.1-9.75,25.86-14.87   c-5.97-3.49-12.13-6.16-18.75-6.16c-16.32,0-29.88,16.24-44.61,21.03c-15.26,4.95-35.74-0.05-48.45,9.2   c-12.83,9.33-14.36,30.42-23.69,43.25c-9.25,12.71-28.88,20.63-33.84,35.89c-4.78,14.73,6.29,32.61,6.29,48.93   c0,16.32-11.07,34.2-6.29,48.92c4.96,15.27,24.59,23.19,33.84,35.89c9.33,12.83,10.86,33.92,23.69,43.26   c12.71,9.24,33.19,4.24,48.45,9.2c14.73,4.78,28.29,21.02,44.61,21.02c6.62,0,12.78-2.67,18.75-6.16   c-8.76-5.12-17.1-12.02-25.86-14.86C174.643,329.323,154.163,334.323,141.453,325.083z"/>
	<path style="fill:#F7B239;" d="M197.013,7.503c104.66,0,189.51,84.84,189.51,189.51c0,104.66-84.85,189.51-189.51,189.51   c-104.67,0-189.51-84.85-189.51-189.51C7.503,92.343,92.343,7.503,197.013,7.503z M341.303,197.013c0-16.32,11.08-34.2,6.29-48.93   c-4.95-15.26-24.59-23.18-33.83-35.89c-9.34-12.83-10.87-33.92-23.7-43.25c-12.71-9.25-33.19-4.25-48.45-9.2   c-14.73-4.79-28.28-21.03-44.6-21.03s-29.88,16.24-44.61,21.03c-15.26,4.95-35.74-0.05-48.45,9.2   c-12.83,9.33-14.36,30.42-23.69,43.25c-9.25,12.71-28.88,20.63-33.84,35.89c-4.78,14.73,6.29,32.61,6.29,48.93   s-11.07,34.2-6.29,48.92c4.96,15.27,24.59,23.19,33.84,35.89c9.33,12.83,10.86,33.92,23.69,43.26c12.71,9.24,33.19,4.24,48.45,9.2   c14.73,4.78,28.29,21.02,44.61,21.02s29.87-16.24,44.6-21.02c15.26-4.96,35.74,0.04,48.45-9.2c12.83-9.34,14.36-30.43,23.7-43.26   c9.24-12.7,28.88-20.62,33.83-35.89C352.383,231.213,341.303,213.333,341.303,197.013z"/>
	<path style="fill:#F7B239;" d="M197.013,7.503c104.66,0,189.51,84.84,189.51,189.51c0,104.66-84.85,189.51-189.51,189.51   c-104.67,0-189.51-84.85-189.51-189.51C7.503,92.343,92.343,7.503,197.013,7.503z M341.303,197.013c0-16.32,11.08-34.2,6.29-48.93   c-4.95-15.26-24.59-23.18-33.83-35.89c-9.34-12.83-10.87-33.92-23.7-43.25c-12.71-9.25-33.19-4.25-48.45-9.2   c-14.73-4.79-28.28-21.03-44.6-21.03s-29.88,16.24-44.61,21.03c-15.26,4.95-35.74-0.05-48.45,9.2   c-12.83,9.33-14.36,30.42-23.69,43.25c-9.25,12.71-28.88,20.63-33.84,35.89c-4.78,14.73,6.29,32.61,6.29,48.93   s-11.07,34.2-6.29,48.92c4.96,15.27,24.59,23.19,33.84,35.89c9.33,12.83,10.86,33.92,23.69,43.26c12.71,9.24,33.19,4.24,48.45,9.2   c14.73,4.78,28.29,21.02,44.61,21.02s29.87-16.24,44.6-21.02c15.26-4.96,35.74,0.04,48.45-9.2c12.83-9.34,14.36-30.43,23.7-43.26   c9.24-12.7,28.88-20.62,33.83-35.89C352.383,231.213,341.303,213.333,341.303,197.013z"/>
	<path style="fill:#E09B2D;" d="M25.502,197.013c0-101.652,80.021-184.594,180.51-189.292c-2.983-0.14-5.982-0.218-8.999-0.218   c-104.67,0-189.51,84.84-189.51,189.51c0,104.66,84.84,189.51,189.51,189.51c3.017,0,6.016-0.079,8.999-0.218   C105.522,381.606,25.502,298.656,25.502,197.013z"/>
	<path style="fill:#FFFFFF;" d="M276.532,313.989c-2.316,0-4.601-1.07-6.068-3.086c-2.277-3.127-1.784-7.426,1.019-9.966   c1.338-1.965,3.998-8.993,4.892-11.354c3.042-8.034,6.489-17.138,12.727-25.706c6.177-8.49,13.724-14.516,20.382-19.832   c1.961-1.564,6.719-5.363,8.739-7.496c-0.425-2.9-1.987-8.663-2.556-10.761c-2.281-8.419-4.863-17.945-4.863-28.776   c0-10.837,2.584-20.365,4.863-28.772c0.841-3.104,2.105-7.771,2.539-10.75c0.598-4.099,4.408-6.925,8.504-6.34   c4.099,0.598,6.937,4.404,6.34,8.504c-0.564,3.87-1.915,8.854-2.901,12.494c-2.039,7.521-4.345,16.024-4.345,24.864   c0,8.835,2.304,17.337,4.337,24.839c2.751,10.144,3.809,15.281,2.815,18.943c-0.032,0.117-0.066,0.233-0.104,0.35   c-1.288,3.972-5.363,7.722-14.011,14.624c-5.917,4.725-12.624,10.079-17.612,16.936c-5.052,6.939-8.119,15.041-10.825,22.188   c-3.892,10.281-6.182,15.27-9.462,17.658C279.609,313.521,278.063,313.989,276.532,313.989z M272.111,300.426   c-0.002,0.001-0.004,0.003-0.007,0.005C272.106,300.429,272.109,300.427,272.111,300.426z M318.329,237.744L318.329,237.744   L318.329,237.744z M318.959,235.67L318.959,235.67L318.959,235.67z"/>
	<path style="fill:#FFFFFF;" d="M292.429,129.106c-2.529,0-4.997-1.279-6.41-3.597c-4.389-7.197-7.18-14.568-9.642-21.072   c-0.801-2.112-3.003-7.928-4.417-10.548c-1.976-0.353-5.763-0.669-11.3-0.942c-8.594-0.426-18.333-0.908-28.476-4.198   c-8.029-2.61-14.794-6.601-20.353-10.159c-3.488-2.233-4.506-6.872-2.272-10.36c2.233-3.49,6.871-4.506,10.36-2.272   c4.758,3.046,10.486,6.44,16.898,8.525c8.241,2.674,16.923,3.104,24.583,3.482c12.248,0.606,16.631,1.394,19.541,3.512   c3.279,2.385,5.568,7.368,9.458,17.637c2.344,6.192,4.763,12.582,8.425,18.588c2.156,3.536,1.038,8.151-2.499,10.308   C295.107,128.752,293.76,129.106,292.429,129.106z M273.096,94.159L273.096,94.159L273.096,94.159z M273.096,94.159L273.096,94.159   L273.096,94.159z M271.358,92.916L271.358,92.916C271.358,92.915,271.358,92.915,271.358,92.916L271.358,92.916z M271.358,92.915   L271.358,92.915C271.358,92.915,271.358,92.915,271.358,92.915z"/>
	<circle style="fill:#FFFFFF;" cx="197.502" cy="61.783" r="7.5"/>
	<g>
		<path style="fill:#333333;" d="M197.009,0C88.378,0,0,88.378,0,197.01s88.378,197.01,197.009,197.01s197.01-88.378,197.01-197.01    S305.641,0,197.009,0z M197.009,379.02C96.649,379.02,15,297.37,15,197.01S96.649,15,197.009,15    c100.361,0,182.01,81.649,182.01,182.01S297.37,379.02,197.009,379.02z"/>
		<path style="fill:#333333;" d="M197.009,125.104c-39.649,0-71.905,32.257-71.905,71.906c0,39.648,32.256,71.905,71.905,71.905    s71.906-32.257,71.906-71.905C268.915,157.36,236.658,125.104,197.009,125.104z M197.009,253.915    c-31.378,0-56.905-25.527-56.905-56.905s25.527-56.906,56.905-56.906c31.378,0,56.906,25.528,56.906,56.906    S228.388,253.915,197.009,253.915z"/>
		<path style="fill:#333333;" d="M348.805,197.01c0-5.779,1.719-12.122,3.539-18.838c2.887-10.654,5.872-21.67,2.387-32.406    c-3.635-11.192-13.143-18.784-21.532-25.481c-5.249-4.191-10.206-8.149-13.374-12.502c-3.233-4.442-5.505-10.443-7.91-16.797    c-3.961-10.463-8.057-21.282-17.439-28.11c-9.289-6.761-20.795-7.33-31.922-7.882c-6.838-0.339-13.296-0.659-18.623-2.389    c-4.979-1.616-10.19-5.057-15.709-8.698c-9.013-5.949-19.228-12.691-31.211-12.691s-22.199,6.742-31.212,12.691    c-5.518,3.642-10.729,7.082-15.708,8.698c-5.326,1.729-11.785,2.05-18.623,2.389c-11.127,0.552-22.633,1.121-31.922,7.882    c-9.383,6.828-13.479,17.647-17.439,28.109c-2.405,6.354-4.677,12.354-7.91,16.798c-3.168,4.353-8.125,8.311-13.375,12.502    c-8.389,6.697-17.896,14.289-21.531,25.481c-3.486,10.735-0.5,21.752,2.386,32.406c1.82,6.716,3.539,13.06,3.539,18.838    s-1.719,12.121-3.539,18.837c-2.887,10.654-5.872,21.671-2.386,32.406c3.634,11.193,13.143,18.785,21.532,25.483    c5.249,4.19,10.206,8.148,13.374,12.5c3.233,4.443,5.505,10.444,7.91,16.798c3.961,10.463,8.057,21.281,17.439,28.11    c9.29,6.761,20.795,7.33,31.922,7.881c6.838,0.339,13.296,0.659,18.623,2.389c4.979,1.616,10.19,5.057,15.708,8.698    c9.013,5.949,19.229,12.692,31.212,12.692s22.199-6.743,31.211-12.692c5.518-3.642,10.729-7.082,15.709-8.698    c5.326-1.729,11.785-2.05,18.623-2.389c11.126-0.551,22.632-1.12,31.922-7.881c9.383-6.829,13.479-17.648,17.439-28.11    c2.405-6.354,4.677-12.355,7.91-16.798c3.167-4.352,8.125-8.31,13.373-12.5c8.39-6.698,17.898-14.29,21.532-25.482    c3.485-10.736,0.5-21.753-2.387-32.407C350.523,209.132,348.805,202.788,348.805,197.01z M337.865,219.77    c2.419,8.929,4.704,17.362,2.597,23.853c-2.243,6.911-9.229,12.487-16.623,18.392c-5.795,4.626-11.786,9.409-16.144,15.396    c-4.419,6.073-7.159,13.313-9.81,20.313c-3.328,8.792-6.473,17.097-12.237,21.292c-5.673,4.129-14.497,4.565-23.838,5.028    c-7.517,0.372-15.289,0.757-22.514,3.103c-6.913,2.245-13.23,6.415-19.339,10.447c-7.955,5.251-15.47,10.211-22.949,10.211    c-7.479,0-14.994-4.96-22.949-10.211c-6.109-4.032-12.426-8.202-19.339-10.447c-7.224-2.346-14.997-2.73-22.514-3.103    c-9.341-0.463-18.164-0.899-23.837-5.028c-5.765-4.195-8.909-12.5-12.237-21.292c-2.65-7.001-5.391-14.24-9.811-20.313    c-4.357-5.986-10.348-10.771-16.142-15.396c-7.395-5.904-14.38-11.481-16.625-18.394c-2.107-6.488,0.178-14.922,2.598-23.851    c1.996-7.367,4.061-14.985,4.061-22.76c0-7.775-2.064-15.394-4.061-22.761c-2.419-8.929-4.705-17.362-2.598-23.851    c2.244-6.912,9.229-12.488,16.624-18.393c5.794-4.626,11.786-9.41,16.143-15.397c4.42-6.073,7.16-13.313,9.811-20.313    c3.329-8.792,6.472-17.096,12.237-21.291c5.673-4.129,14.497-4.566,23.838-5.029c7.517-0.372,15.289-0.757,22.513-3.103    c6.913-2.245,13.229-6.415,19.338-10.447c7.955-5.25,15.469-10.21,22.949-10.21c7.48,0,14.994,4.96,22.949,10.21    c6.109,4.033,12.427,8.202,19.34,10.447c7.224,2.346,14.996,2.73,22.513,3.103c9.342,0.463,18.165,0.9,23.838,5.029    c5.766,4.195,8.909,12.5,12.237,21.292c2.65,7,5.391,14.239,9.811,20.313c4.357,5.987,10.349,10.771,16.144,15.397    c7.395,5.904,14.379,11.481,16.623,18.392c2.107,6.49-0.178,14.923-2.598,23.852c-1.996,7.367-4.061,14.985-4.061,22.761    C333.805,204.784,335.869,212.402,337.865,219.77z"/>
		<path style="fill:#333333;" d="M172.548,94.805l20.999,13.499c1.255,0.807,2.66,1.192,4.049,1.192    c2.467,0,4.883-1.216,6.315-3.445c2.24-3.484,1.231-8.125-2.253-10.364L180.66,82.188c-3.485-2.24-8.125-1.232-10.365,2.253    C168.055,87.925,169.064,92.565,172.548,94.805z"/>
		<path style="fill:#333333;" d="M230.251,279.567l-21.706,12.327c-3.603,2.045-4.864,6.623-2.818,10.226    c1.381,2.432,3.918,3.797,6.528,3.797c1.255,0,2.527-0.315,3.697-0.979l21.706-12.327c3.603-2.045,4.864-6.623,2.818-10.226    C238.432,278.784,233.854,277.522,230.251,279.567z"/>
		<path style="fill:#333333;" d="M133.138,269.063c-0.361-4.126-3.999-7.175-8.124-6.819c-4.126,0.36-7.18,3.998-6.819,8.124    l2.172,24.869c0.341,3.904,3.616,6.848,7.463,6.848c0.219,0,0.439-0.009,0.661-0.028c4.126-0.36,7.18-3.998,6.819-8.124    L133.138,269.063z"/>
		<path style="fill:#333333;" d="M94.167,144.37c-0.008,0-0.015,0-0.022,0c-4.132,0-7.487,3.344-7.5,7.479l-0.073,24.964    c-0.012,4.142,3.336,7.51,7.478,7.521c0.008,0,0.015,0,0.022,0c4.132,0,7.487-3.344,7.5-7.479l0.073-24.964    C101.657,147.75,98.309,144.382,94.167,144.37z"/>
		<path style="fill:#333333;" d="M302.603,137.47l-24.639-4.016c-4.088-0.667-7.942,2.108-8.608,6.196s2.107,7.942,6.196,8.608    l24.639,4.016c0.408,0.066,0.814,0.099,1.215,0.099c3.611,0,6.794-2.615,7.394-6.295    C309.465,141.99,306.691,138.136,302.603,137.47z"/>
		<path style="fill:#333333;" d="M293.692,210.524c-0.008,0-0.015,0-0.021,0c-4.132,0-7.488,3.344-7.5,7.479l-0.072,24.964    c-0.012,4.142,3.336,7.51,7.479,7.521c0.008,0,0.015,0,0.021,0c4.132,0,7.488-3.344,7.5-7.479l0.072-24.964    C301.183,213.904,297.835,210.536,293.692,210.524z"/>
	</g>
</g>















</svg>
